<svg xmlns="http://www.w3.org/2000/svg" xmlns:xlink="http://www.w3.org/1999/xlink" version="1.1" width="256" height="256" viewBox="0 0 256 256" xml:space="preserve">

<defs>
</defs>
<g style="stroke: none; stroke-width: 0; stroke-dasharray: none; stroke-linecap: butt; stroke-linejoin: miter; stroke-miterlimit: 10; fill: none; fill-rule: nonzero; opacity: 1;" transform="translate(254.59340659340654 254.59340659340654) rotate(180) scale(2.81 2.81) matrix(1 0 0 -1 0 90)" >
	<circle cx="45" cy="45" r="45" style="stroke: none; stroke-width: 1; stroke-dasharray: none; stroke-linecap: butt; stroke-linejoin: miter; stroke-miterlimit: 10; fill: rgb(76,115,255); fill-rule: nonzero; opacity: 1;" transform="  matrix(1 0 0 1 0 0) "/>
	<path d="M 59.686 63.013 l -1.331 1.331 c -2.228 2.228 -5.874 2.228 -8.102 0 l -31.23 -31.23 c -2.228 -2.228 -2.228 -5.874 0 -8.102 l 1.331 -1.331 c 2.228 -2.228 5.874 -2.228 8.102 0 l 31.23 31.23 C 61.914 57.14 61.914 60.785 59.686 63.013 z" style="stroke: none; stroke-width: 1; stroke-dasharray: none; stroke-linecap: butt; stroke-linejoin: miter; stroke-miterlimit: 10; fill: rgb(47,77,182); fill-rule: nonzero; opacity: 1;" transform=" matrix(1 0 0 1 0 0) " stroke-linecap="round" />
	<path d="M 31.889 43.509 L 21.662 71.769 c -1.174 3.243 2.875 5.817 5.314 3.379 l 19.243 -19.243 c 1.26 -1.26 1.26 -3.302 0 -4.562 l -9.016 -9.016 C 35.533 40.656 32.693 41.288 31.889 43.509 z" style="stroke: none; stroke-width: 1; stroke-dasharray: none; stroke-linecap: butt; stroke-linejoin: miter; stroke-miterlimit: 10; fill: rgb(47,77,182); fill-rule: nonzero; opacity: 1;" transform=" matrix(1 0 0 1 0 0) " stroke-linecap="round" />
	<path d="M 38.852 36.547 L 67.111 26.32 c 3.243 -1.174 5.817 2.875 3.379 5.314 L 51.246 50.877 c -1.26 1.26 -3.302 1.26 -4.562 0 l -9.016 -9.016 C 35.998 40.191 36.631 37.351 38.852 36.547 z" style="stroke: none; stroke-width: 1; stroke-dasharray: none; stroke-linecap: butt; stroke-linejoin: miter; stroke-miterlimit: 10; fill: rgb(47,77,182); fill-rule: nonzero; opacity: 1;" transform=" matrix(1 0 0 1 0 0) " stroke-linecap="round" />
	<path d="M 51.191 58.957 l -3.799 13.022 c -0.935 3.204 3.017 5.545 5.377 3.184 l 8.411 -8.411 c 1.26 -1.26 1.26 -3.302 0 -4.562 l -4.612 -4.612 C 54.835 55.846 51.877 56.603 51.191 58.957 z" style="stroke: none; stroke-width: 1; stroke-dasharray: none; stroke-linecap: butt; stroke-linejoin: miter; stroke-miterlimit: 10; fill: rgb(47,77,182); fill-rule: nonzero; opacity: 1;" transform=" matrix(1 0 0 1 0 0) " stroke-linecap="round" />
	<path d="M 54.299 55.849 l 13.022 -3.799 c 3.204 -0.935 5.545 3.017 3.184 5.377 l -8.411 8.411 c -1.26 1.26 -3.302 1.26 -4.562 0 l -4.612 -4.612 C 51.188 59.493 51.945 56.535 54.299 55.849 z" style="stroke: none; stroke-width: 1; stroke-dasharray: none; stroke-linecap: butt; stroke-linejoin: miter; stroke-miterlimit: 10; fill: rgb(47,77,182); fill-rule: nonzero; opacity: 1;" transform=" matrix(1 0 0 1 0 0) " stroke-linecap="round" />
	<path d="M 62.696 60.003 l -1.331 1.331 c -2.228 2.228 -5.874 2.228 -8.102 0 l -31.23 -31.23 c -2.228 -2.228 -2.228 -5.874 0 -8.102 l 1.331 -1.331 c 2.228 -2.228 5.874 -2.228 8.102 0 l 31.23 31.23 C 64.924 54.129 64.924 57.775 62.696 60.003 z" style="stroke: none; stroke-width: 1; stroke-dasharray: none; stroke-linecap: butt; stroke-linejoin: miter; stroke-miterlimit: 10; fill: rgb(255,255,255); fill-rule: nonzero; opacity: 1;" transform=" matrix(1 0 0 1 0 0) " stroke-linecap="round" />
	<path d="M 34.9 40.499 L 24.672 68.758 c -1.174 3.243 2.875 5.817 5.314 3.379 L 49.23 52.893 c 1.26 -1.26 1.26 -3.302 0 -4.562 l -9.016 -9.016 C 38.544 37.646 35.704 38.278 34.9 40.499 z" style="stroke: none; stroke-width: 1; stroke-dasharray: none; stroke-linecap: butt; stroke-linejoin: miter; stroke-miterlimit: 10; fill: rgb(255,255,255); fill-rule: nonzero; opacity: 1;" transform=" matrix(1 0 0 1 0 0) " stroke-linecap="round" />
	<path d="M 41.862 33.537 l 28.259 -10.228 c 3.243 -1.174 5.817 2.875 3.379 5.314 L 54.256 47.867 c -1.26 1.26 -3.302 1.26 -4.562 0 l -9.016 -9.016 C 39.009 37.181 39.641 34.341 41.862 33.537 z" style="stroke: none; stroke-width: 1; stroke-dasharray: none; stroke-linecap: butt; stroke-linejoin: miter; stroke-miterlimit: 10; fill: rgb(255,255,255); fill-rule: nonzero; opacity: 1;" transform=" matrix(1 0 0 1 0 0) " stroke-linecap="round" />
	<path d="M 54.201 55.946 l -3.799 13.022 c -0.935 3.204 3.017 5.545 5.377 3.184 l 8.411 -8.411 c 1.26 -1.26 1.26 -3.302 0 -4.562 l -4.612 -4.612 C 57.845 52.835 54.888 53.593 54.201 55.946 z" style="stroke: none; stroke-width: 1; stroke-dasharray: none; stroke-linecap: butt; stroke-linejoin: miter; stroke-miterlimit: 10; fill: rgb(255,255,255); fill-rule: nonzero; opacity: 1;" transform=" matrix(1 0 0 1 0 0) " stroke-linecap="round" />
	<path d="M 57.309 52.838 l 13.022 -3.799 c 3.204 -0.935 5.545 3.017 3.184 5.377 l -8.411 8.411 c -1.26 1.26 -3.302 1.26 -4.562 0 l -4.612 -4.612 C 54.198 56.482 54.956 53.525 57.309 52.838 z" style="stroke: none; stroke-width: 1; stroke-dasharray: none; stroke-linecap: butt; stroke-linejoin: miter; stroke-miterlimit: 10; fill: rgb(255,255,255); fill-rule: nonzero; opacity: 1;" transform=" matrix(1 0 0 1 0 0) " stroke-linecap="round" />
</g>
</svg>