<svg xmlns="http://www.w3.org/2000/svg" xmlns:xlink="http://www.w3.org/1999/xlink" version="1.1" width="256" height="256" viewBox="0 0 256 256" xml:space="preserve">

<defs>
</defs>
<g style="stroke: none; stroke-width: 0; stroke-dasharray: none; stroke-linecap: butt; stroke-linejoin: miter; stroke-miterlimit: 10; fill: none; fill-rule: nonzero; opacity: 1;" transform="translate(254.59340659340654 254.59340659340654) rotate(180) scale(2.81 2.81) matrix(1 0 0 -1 0 90)" >
	<circle cx="45" cy="45" r="45" style="stroke: none; stroke-width: 1; stroke-dasharray: none; stroke-linecap: butt; stroke-linejoin: miter; stroke-miterlimit: 10; fill: rgb(222,140,40); fill-rule: nonzero; opacity: 1;" transform="  matrix(1 0 0 1 0 0) "/>
	<path d="M 67.145 33.529 L 46.832 21.112 c -1.988 -1.215 -4.673 -1.215 -6.661 0 L 19.859 33.529 c -2.989 1.827 -2.945 5.096 -0.947 7.066 v 27.457 c 0 1.509 1.46 2.744 3.245 2.744 h 42.689 c 1.785 0 3.245 -1.235 3.245 -2.744 V 40.594 C 70.091 38.625 70.134 35.356 67.145 33.529 z" style="stroke: none; stroke-width: 1; stroke-dasharray: none; stroke-linecap: butt; stroke-linejoin: miter; stroke-miterlimit: 10; fill: rgb(173,113,27); fill-rule: nonzero; opacity: 1;" transform=" matrix(1 0 0 1 0 0) " stroke-linecap="round" />
	<path d="M 70.141 30.533 L 49.828 18.116 c -1.988 -1.215 -4.673 -1.215 -6.661 0 L 22.855 30.533 c -2.989 1.827 -2.945 5.096 -0.947 7.066 v 27.457 c 0 1.509 1.46 2.744 3.245 2.744 h 42.689 c 1.785 0 3.245 -1.235 3.245 -2.744 V 37.599 C 73.086 35.629 73.13 32.36 70.141 30.533 z" style="stroke: none; stroke-width: 1; stroke-dasharray: none; stroke-linecap: butt; stroke-linejoin: miter; stroke-miterlimit: 10; fill: rgb(255,255,255); fill-rule: nonzero; opacity: 1;" transform=" matrix(1 0 0 1 0 0) " stroke-linecap="round" />
</g>
</svg>